<svg xmlns="http://www.w3.org/2000/svg" width="320" height="263" viewBox="0 0 320 263">
    <g fill="none" fill-rule="evenodd">
        <path fill="#0FD299" d="M267.683 229.932h-2.666c-8.345 0-15.112-6.732-15.112-15.034s6.767-15.034 15.112-15.034h30.094c11.781 0 21.333-9.503 21.333-21.225 0-11.72-9.552-21.224-21.333-21.224h-5.333c-9.819 0-17.778-7.919-17.778-17.687 0-9.769 7.96-17.687 17.778-17.687h15.11c8.346 0 15.112-6.732 15.112-15.034 0-8.303-6.766-15.034-15.111-15.034H240c-3.927 0-7.111-3.168-7.111-7.075s3.184-7.075 7.111-7.075h49.778c9.818 0 17.778-7.918 17.778-17.687 0-9.769-7.96-17.687-17.778-17.687h-39.112c-4.91 0-8.888-3.96-8.888-8.844 0-4.883 3.978-8.843 8.889-8.843H266.666c6.874 0 12.445-5.543 12.445-12.381S273.54 0 266.667 0h-112c-6.873 0-12.445 5.543-12.445 12.381s5.572 12.38 12.445 12.38h16.889c4.91 0 8.888 3.961 8.888 8.844 0 4.884-3.978 8.844-8.888 8.844h-136c-9.817 0-17.778 7.918-17.778 17.687 0 9.769 7.96 17.687 17.778 17.687h37.333c7.365 0 13.333 5.94 13.333 13.265 0 7.326-5.968 13.266-13.333 13.266h-48C11.143 104.354 0 115.44 0 129.116c0 13.675 11.143 24.762 24.889 24.762h11.555c5.89 0 10.667 4.752 10.667 10.612s-4.777 10.612-10.667 10.612H10.667C4.777 175.102 0 179.855 0 185.714c0 5.86 4.777 10.613 10.667 10.613h44.445c7.853 0 14.221 6.335 14.221 14.15 0 7.813-6.368 14.149-14.222 14.149H44.444c-9.816 0-17.777 7.918-17.777 17.687 0 9.768 7.96 17.687 17.777 17.687h253.334c8.345 0 15.11-6.732 15.11-15.034s-6.765-15.034-15.11-15.034h-30.095z" opacity=".05"/>
        <path fill="#FFF" d="M143.741 96.568h-2.01v-2.012c0-1.19-.966-2.155-2.156-2.155-1.19 0-2.155.966-2.155 2.155v2.012h-2.012c-1.19 0-2.156.966-2.156 2.155 0 1.19.966 2.156 2.156 2.156h2.012v2.011c0 1.19.966 2.156 2.155 2.156 1.19 0 2.156-.966 2.156-2.156v-2.011h2.01c1.192 0 2.156-.966 2.156-2.156 0-1.19-.964-2.155-2.156-2.155M193.346 123.802h-2.01v-2.012c0-1.19-.966-2.155-2.156-2.155-1.19 0-2.155.966-2.155 2.155v2.012h-2.012c-1.19 0-2.156.966-2.156 2.155 0 1.19.966 2.156 2.156 2.156h2.012v2.012c0 1.19.965 2.155 2.155 2.155s2.156-.966 2.156-2.155v-2.012h2.01c1.192 0 2.156-.966 2.156-2.156 0-1.19-.964-2.155-2.156-2.155M182.857 89.97c0 2.954-2.395 5.35-5.35 5.35-2.954 0-5.349-2.396-5.349-5.35 0-2.955 2.395-5.35 5.35-5.35 2.954 0 5.35 2.395 5.35 5.35M131.307 137.63c0 2.954-2.395 5.349-5.35 5.349-2.954 0-5.35-2.395-5.35-5.35 0-2.955 2.396-5.35 5.35-5.35 2.955 0 5.35 2.395 5.35 5.35"/>
        <g transform="translate(60 67)">
            <g>
                <path d="M0 0H108V108H0z" transform="translate(46 46)"/>
                <g fill="#0FD299">
                    <path d="M42.18 5.667c1.57.344 4.558.568 8.712.132 4.154-.437 7.03-1.278 8.495-1.94-1.57-.344-4.559-.568-8.713-.131-4.153.436-7.029 1.277-8.494 1.94m4.373 3.692c-1.352 0-2.607-.072-3.705-.217-1.153-.152-4.661-.613-4.915-3.03-.254-2.415 3.082-3.596 4.178-3.984C44.29 1.356 47.21.75 50.327.423 53.444.095 56.425.08 58.72.383c1.152.152 4.66.613 4.915 3.03.254 2.415-3.082 3.596-4.178 3.985-2.181.772-5.1 1.378-8.217 1.705-1.625.171-3.213.257-4.686.257" transform="translate(46 46) translate(0 13.5)"/>
                    <path d="M42.18 5.667c1.57.344 4.558.568 8.712.132 4.154-.437 7.03-1.278 8.495-1.94-1.57-.344-4.559-.568-8.713-.131-4.153.436-7.029 1.277-8.494 1.94zm4.373 3.693c-1.352 0-2.607-.072-3.705-.217-1.153-.152-4.661-.613-4.915-3.03-.254-2.415 3.082-3.596 4.178-3.984C44.29 1.356 47.21.75 50.327.423 53.444.095 56.425.08 58.72.383c1.152.152 4.66.613 4.915 3.03.254 2.415-3.082 3.596-4.178 3.985-2.181.772-5.1 1.378-8.217 1.705-1.625.171-3.213.257-4.686.257zM42.667 53.92c-.757 0-1.415-.563-1.514-1.334-.107-.838.484-1.603 1.322-1.71l26.153-3.354c.838-.106 1.604.485 1.71 1.322.108.838-.484 1.603-1.321 1.71l-26.153 3.354c-.066.008-.132.012-.197.012" transform="translate(46 46) translate(0 13.5)"/>
                    <path d="M42.667 53.92c-.757 0-1.415-.563-1.514-1.334-.107-.838.484-1.603 1.322-1.71l26.153-3.354c.838-.106 1.604.485 1.71 1.322.108.838-.484 1.603-1.321 1.71l-26.153 3.354c-.066.008-.132.012-.197.012zM35.962 37.915c-.342 0-.686-.114-.971-.349-.652-.537-.744-1.5-.207-2.152l6.706-8.136c.537-.652 1.5-.744 2.151-.208.652.537.745 1.5.208 2.152l-6.706 8.137c-.302.366-.74.556-1.18.556" transform="translate(46 46) translate(0 13.5)"/>
                    <path d="M35.962 37.915c-.342 0-.686-.114-.971-.349-.652-.537-.744-1.5-.207-2.152l6.706-8.136c.537-.652 1.5-.744 2.151-.208.652.537.745 1.5.208 2.152l-6.706 8.137c-.302.366-.74.556-1.18.556zM65.469 35.233c-.342 0-.687-.115-.971-.35-.652-.536-.745-1.5-.208-2.151l6.706-8.137c.537-.651 1.5-.744 2.152-.207.652.537.744 1.5.207 2.152l-6.706 8.136c-.302.367-.74.557-1.18.557" transform="translate(46 46) translate(0 13.5)"/>
                    <path d="M65.469 35.233c-.342 0-.687-.115-.971-.35-.652-.536-.745-1.5-.208-2.151l6.706-8.137c.537-.651 1.5-.744 2.152-.207.652.537.744 1.5.207 2.152l-6.706 8.136c-.302.367-.74.557-1.18.557zM42.668 36.588c-.347 0-.696-.118-.983-.36L33.59 29.42c-.646-.544-.73-1.508-.186-2.154.544-.646 1.508-.73 2.154-.186l8.095 6.81c.646.543.73 1.507.186 2.153-.302.36-.735.545-1.17.545" transform="translate(46 46) translate(0 13.5)"/>
                    <path d="M42.668 36.588c-.347 0-.696-.118-.983-.36L33.59 29.42c-.646-.544-.73-1.508-.186-2.154.544-.646 1.508-.73 2.154-.186l8.095 6.81c.646.543.73 1.507.186 2.153-.302.36-.735.545-1.17.545zM72.845 35.247c-.347 0-.696-.118-.983-.36l-8.095-6.809c-.646-.543-.73-1.507-.186-2.153.544-.646 1.508-.73 2.154-.186l8.095 6.81c.646.543.73 1.507.186 2.153-.302.36-.735.545-1.17.545" transform="translate(46 46) translate(0 13.5)"/>
                    <path d="M72.845 35.247c-.347 0-.696-.118-.983-.36l-8.095-6.809c-.646-.543-.73-1.507-.186-2.153.544-.646 1.508-.73 2.154-.186l8.095 6.81c.646.543.73 1.507.186 2.153-.302.36-.735.545-1.17.545zM100.264 34.46L95.959 34.951 96.019 36.288 100.324 35.798z" transform="translate(46 46) translate(0 13.5)"/>
                    <path d="M100.264 34.46L95.959 34.951 96.019 36.288 100.324 35.798z" transform="translate(46 46) translate(0 13.5)"/>
                    <path d="M91.01 30.819l.979 11.321c2.684-.754 4.408-3.557 3.902-6.51-.441-2.572-2.489-4.518-4.882-4.811zm-.899 13.647l-1.354-15.648 1.037-.085c3.879-.318 7.454 2.559 8.138 6.547.733 4.27-2.016 8.317-6.126 9.022-.222.038-.447.066-.67.084l-1.025.08z" transform="translate(46 46) translate(0 13.5)"/>
                    <path d="M91.01 30.819l.979 11.321c2.684-.754 4.408-3.557 3.902-6.51-.441-2.572-2.489-4.518-4.882-4.811zm-.899 13.647l-1.354-15.648 1.037-.085c3.879-.318 7.454 2.559 8.138 6.547.733 4.27-2.016 8.317-6.126 9.022-.222.038-.447.066-.67.084l-1.025.08zM103.822 32.59c-.107 0-.216.008-.325.027-1.042.179-1.745 1.172-1.566 2.214.179 1.042 1.173 1.743 2.214 1.566 1.042-.179 1.745-1.172 1.566-2.214-.16-.933-.973-1.594-1.889-1.594m-.01 5.908c-.817 0-1.613-.252-2.294-.734-.87-.615-1.448-1.532-1.628-2.582-.18-1.05.06-2.107.674-2.977.616-.87 1.533-1.448 2.583-1.629 1.05-.18 2.107.06 2.977.675.87.615 1.448 1.533 1.628 2.583.18 1.05-.06 2.107-.674 2.977-.615.87-1.533 1.448-2.583 1.628-.228.039-.456.059-.682.059" transform="translate(46 46) translate(0 13.5)"/>
                    <path d="M103.822 32.59c-.107 0-.216.008-.325.027-1.042.179-1.745 1.172-1.566 2.214.179 1.042 1.173 1.743 2.214 1.566 1.042-.179 1.745-1.172 1.566-2.214-.16-.933-.973-1.594-1.889-1.594zm-.01 5.907c-.817 0-1.613-.252-2.294-.734-.87-.615-1.448-1.532-1.628-2.582-.18-1.05.06-2.107.674-2.977.616-.87 1.533-1.448 2.583-1.629 1.05-.18 2.107.06 2.977.675.87.615 1.448 1.533 1.628 2.583.18 1.05-.06 2.107-.674 2.977-.615.87-1.533 1.448-2.583 1.628-.228.039-.456.059-.682.059zM7.648 42.782L11.972 42.505 12.149 43.833 7.825 44.11z" transform="translate(46 46) translate(0 13.5)"/>
                    <path d="M7.648 42.782L11.972 42.505 12.149 43.833 7.825 44.11z" transform="translate(46 46) translate(0 13.5)"/>
                    <path d="M12.159 43.162c.022 2.996 2.215 5.451 4.99 5.72l-1.035-11.318c-2.303.711-3.975 2.989-3.955 5.598zm6.226 7.779c-.223.022-.45.034-.675.036-4.17.031-7.59-3.468-7.622-7.8-.031-4.046 2.98-7.508 6.854-7.88l1.036-.1 1.43 15.643-1.023.1z" transform="translate(46 46) translate(0 13.5)"/>
                    <path d="M12.159 43.162c.022 2.996 2.215 5.451 4.99 5.72l-1.035-11.318c-2.303.711-3.975 2.989-3.955 5.598zm6.226 7.779c-.223.022-.45.034-.675.036-4.17.031-7.59-3.468-7.622-7.8-.031-4.046 2.98-7.508 6.854-7.88l1.036-.1 1.43 15.643-1.023.1zM2.237 43.47c.008 1.058.875 1.911 1.932 1.903 1.057-.009 1.911-.874 1.903-1.932-.008-1.057-.874-1.91-1.932-1.902-.11 0-.22.01-.325.03-.901.161-1.585.955-1.578 1.902m1.948 3.973c-1.065.009-2.07-.399-2.83-1.146-.758-.748-1.18-1.746-1.189-2.812-.008-1.065.4-2.07 1.147-2.829.748-.759 1.745-1.182 2.812-1.19 1.065-.008 2.07.4 2.829 1.147.759.748 1.181 1.746 1.19 2.812.007 1.065-.4 2.07-1.147 2.83-.586.593-1.325.981-2.13 1.126-.222.04-.45.06-.682.062" transform="translate(46 46) translate(0 13.5)"/>
                    <path d="M2.237 43.47c.008 1.058.875 1.911 1.932 1.903 1.057-.009 1.911-.874 1.903-1.932-.008-1.057-.874-1.91-1.932-1.902-.11 0-.22.01-.325.03-.901.161-1.585.955-1.578 1.902zm1.948 3.974c-1.065.009-2.07-.399-2.83-1.146-.758-.748-1.18-1.746-1.189-2.812-.008-1.065.4-2.07 1.147-2.829.748-.759 1.745-1.182 2.812-1.19 1.065-.008 2.07.4 2.829 1.147.759.748 1.181 1.746 1.19 2.812.007 1.065-.4 2.07-1.147 2.83-.586.593-1.325.981-2.13 1.126-.222.04-.45.06-.682.062zM42.036 13.052c.905.496 4.385 1.1 9.708.54 5.32-.558 8.6-1.873 9.383-2.546l-.435-4.14c-3.068 1.412-7.677 2.01-9.453 2.197-1.763.186-6.346.555-9.636-.168l.433 4.117zm5.44 4.096c-3.524 0-7.624-.505-8.54-2.733-.082-.17-.136-.353-.156-.543L38 6.442c-.047-.439.083-.877.361-1.22.278-.343.68-.56 1.12-.606l.055-.006c.584-.062 1.155.191 1.503.658.682.49 4.18 1.126 9.853.53 5.674-.596 8.963-1.947 9.527-2.567.245-.53.751-.895 1.337-.957l.12-.012c.912-.093 1.728.567 1.824 1.479l.781 7.43c.021.201.005.402-.045.595-.712 3.627-9.58 4.841-12.345 5.132-.973.102-2.71.25-4.615.25z" transform="translate(46 46) translate(0 13.5)"/>
                    <path d="M42.036 13.052c.905.496 4.385 1.1 9.708.54 5.32-.558 8.6-1.873 9.383-2.546l-.435-4.14c-3.068 1.412-7.677 2.01-9.453 2.197-1.763.186-6.346.555-9.636-.168l.433 4.117zm5.44 4.096c-3.524 0-7.624-.505-8.54-2.733-.082-.17-.136-.353-.156-.543L38 6.442c-.047-.439.083-.877.361-1.22.278-.343.68-.56 1.12-.606l.055-.006c.584-.062 1.155.191 1.503.658.682.49 4.18 1.126 9.853.53 5.674-.596 8.963-1.947 9.527-2.567.245-.53.751-.895 1.337-.957l.12-.012c.912-.093 1.728.567 1.824 1.479l.781 7.43c.021.201.005.402-.045.595-.712 3.627-9.58 4.841-12.345 5.132-.973.102-2.71.25-4.615.25z" transform="translate(46 46) translate(0 13.5)"/>
                    <path d="M38.677 11.615l-11.077.982c-5.75.51-10.02 5.673-9.515 11.51l3.326 38.519c.247 2.855 1.581 5.434 3.758 7.26 2.132 1.789 4.824 2.64 7.577 2.395l47.793-4.236c5.75-.51 10.019-5.674 9.515-11.51l-3.326-38.52c-.247-2.855-1.581-5.434-3.758-7.26-2.132-1.789-4.822-2.64-7.578-2.395l-11.235.996.192 1.828c.02.183.005.366-.04.541-.245 1.327-1.624 2.425-4.203 3.35-2.153.772-5.005 1.372-8.029 1.69-3.024.319-5.939.324-8.205.016-2.734-.37-4.315-1.166-4.819-2.429-.074-.154-.122-.321-.14-.494l-.236-2.243zM31.815 75.38c-3.144 0-6.163-1.098-8.611-3.151-2.803-2.353-4.522-5.67-4.839-9.34L15.04 24.37c-.649-7.512 4.865-14.16 12.29-14.819l12.576-1.114c.834-.076 1.568.533 1.655 1.363l.35 3.335c.838.517 4.352 1.168 9.847.59 5.496-.578 8.798-1.944 9.51-2.624l-.313-2.97c-.043-.408.08-.816.34-1.132.26-.316.637-.515 1.045-.551l12.783-1.133c3.57-.315 7.055.783 9.813 3.098 2.803 2.352 4.522 5.67 4.839 9.34L93.1 56.27c.648 7.513-4.865 14.16-12.29 14.82l-47.793 4.235c-.402.036-.804.054-1.202.054z" transform="translate(46 46) translate(0 13.5)"/>
                    <path d="M38.677 11.615l-11.077.982c-5.75.51-10.02 5.673-9.515 11.51l3.326 38.519c.247 2.855 1.581 5.434 3.758 7.26 2.132 1.789 4.824 2.64 7.577 2.395l47.793-4.236c5.75-.51 10.019-5.674 9.515-11.51l-3.326-38.52c-.247-2.855-1.581-5.434-3.758-7.26-2.132-1.789-4.822-2.64-7.578-2.395l-11.235.996.192 1.828c.02.183.005.366-.04.541-.245 1.327-1.624 2.425-4.203 3.35-2.153.772-5.005 1.372-8.029 1.69-3.024.319-5.939.324-8.205.016-2.734-.37-4.315-1.166-4.819-2.429-.074-.154-.122-.321-.14-.494l-.236-2.243zM31.815 75.38c-3.144 0-6.163-1.098-8.611-3.151-2.803-2.353-4.522-5.67-4.839-9.34L15.04 24.37c-.649-7.512 4.865-14.16 12.29-14.819l12.576-1.114c.834-.076 1.568.533 1.655 1.363l.35 3.335c.838.517 4.352 1.168 9.847.59 5.496-.578 8.798-1.944 9.51-2.624l-.313-2.97c-.043-.408.08-.816.34-1.132.26-.316.637-.515 1.045-.551l12.783-1.133c3.57-.315 7.055.783 9.813 3.098 2.803 2.352 4.522 5.67 4.839 9.34L93.1 56.27c.648 7.513-4.865 14.16-12.29 14.82l-47.793 4.235c-.402.036-.804.054-1.202.054z" transform="translate(46 46) translate(0 13.5)"/>
                </g>
            </g>
            <rect width="16" height="16" x="32" y="154" fill="#0FD299" opacity=".5" rx="2.996"/>
            <rect width="12" height="12" x="158" y="32" fill="#0FD299" opacity=".5" rx="2.996"/>
            <path stroke="#0FD299" stroke-linecap="round" stroke-width="4.494" d="M101 32c-38.108 0-69 30.892-69 69M100 169c38.108 0 69-30.892 69-69" opacity=".25"/>
            <g transform="translate(152 144)">
                <g>
                    <path fill="#0FD299" d="M28.588 24L43.129 9.168c.57-.58.877-1.347.871-2.159-.007-.811-.333-1.568-.913-2.138C42.513 4.31 41.76 4 40.961 4h-.032c-.812.007-1.572.333-2.14.913L24.29 19.703 9.168 4.87c-.58-.568-1.45-.842-2.158-.871-.812.007-1.572.333-2.14.913C4.3 5.49 3.99 6.26 4 7.07c.007.812.333 1.569.91 2.14L19.99 24 4.91 38.79c-.577.57-.903 1.326-.91 2.138-.01.812.3 1.582.87 2.159 1.135 1.16 3.144 1.18 4.298.042L24.29 28.297l14.5 14.79c.577.587 1.346.913 2.168.913.802 0 1.558-.31 2.129-.87.58-.571.906-1.328.913-2.14.006-.812-.3-1.578-.87-2.158L28.587 24z" opacity=".5" transform="translate(0 8)"/>
                    <path d="M0 0H48V48H0z" transform="translate(0 8)"/>
                </g>
                <rect width="8" height="8" x="40" fill="#0FD299" opacity=".5" rx="2.996"/>
            </g>
            <g transform="matrix(-1 0 0 1 48 0)">
                <g>
                    <path fill="#0FD299" d="M28.588 24L43.129 9.168c.57-.58.877-1.347.871-2.159-.007-.811-.333-1.568-.913-2.138C42.513 4.31 41.76 4 40.961 4h-.032c-.812.007-1.572.333-2.14.913L24.29 19.703 9.168 4.87c-.58-.568-1.45-.842-2.158-.871-.812.007-1.572.333-2.14.913C4.3 5.49 3.99 6.26 4 7.07c.007.812.333 1.569.91 2.14L19.99 24 4.91 38.79c-.577.57-.903 1.326-.91 2.138-.01.812.3 1.582.87 2.159 1.135 1.16 3.144 1.18 4.298.042L24.29 28.297l14.5 14.79c.577.587 1.346.913 2.168.913.802 0 1.558-.31 2.129-.87.58-.571.906-1.328.913-2.14.006-.812-.3-1.578-.87-2.158L28.587 24z" opacity=".5" transform="matrix(-1 0 0 1 48 8)"/>
                    <path d="M0 0H48V48H0z" transform="matrix(-1 0 0 1 48 8)"/>
                </g>
                <rect width="8" height="8" x="40" fill="#0FD299" opacity=".5" rx="2.996"/>
            </g>
        </g>
    </g>
</svg>
