<svg xmlns="http://www.w3.org/2000/svg" width="13" height="16" viewBox="0 0 13 16">
    <g fill="#A5A6A7" fill-rule="evenodd">
        <path d="M11.192 3.87l.798-.24C11.544 2.138 10.56.87 9.217.06l-.43.714c1.164.701 2.018 1.8 2.405 3.095zM3.213.774L2.783.06C1.44.869.456 2.137.01 3.63l.798.24C1.195 2.573 2.05 1.474 3.213.773zM1.417 5.417v4.466c0 .269-.105.521-.295.711-.347.348-.539.81-.539 1.3v.662H3.96c.193.95 1.035 1.666 2.041 1.666s1.848-.717 2.041-1.666h3.376v-.661c0-.492-.192-.953-.54-1.3-.19-.19-.294-.443-.294-.712V5.417c0-2.387-1.834-4.353-4.166-4.565V0h-.834v.852c-2.332.212-4.166 2.178-4.166 4.565zM6 13.389c-.543 0-1.006-.348-1.178-.834h2.356c-.172.486-.635.834-1.178.834zm3.75-7.972v4.466c0 .491.191.953.539 1.3.148.15.245.336.28.54H1.43c.035-.204.132-.39.28-.54.348-.347.539-.809.539-1.3V5.417c0-2.068 1.682-3.75 3.75-3.75s3.75 1.682 3.75 3.75z" transform="translate(.844 .8)"/>
    </g>
</svg>
