<svg xmlns="http://www.w3.org/2000/svg" xmlns:xlink="http://www.w3.org/1999/xlink" width="46" height="46" viewBox="0 0 46 46">
    <defs>
        <ellipse id="prefix__a" cx="22.918" cy="22.917" rx="22.918" ry="22.917"/>
    </defs>
    <g fill="none" fill-rule="evenodd" transform="translate(.083 .083)">
        <mask id="prefix__b" fill="#fff">
            <use xlink:href="#prefix__a"/>
        </mask>
        <use fill="#0FD299" xlink:href="#prefix__a"/>
        <g mask="url(#prefix__b)">
            <g fill="#FFF">
                <path d="M35.852 9.722h-.607V7.9c0-.335-.272-.607-.608-.607h-6.684V.608c0-.336-.272-.608-.608-.608H9.115c-.336 0-.608.272-.608.608v6.684H1.823c-.336 0-.608.272-.608.607v1.823H.608c-.336 0-.608.272-.608.608v25.52c0 .336.272.608.608.608h35.244c.336 0 .608-.272.608-.607V10.33c0-.336-.272-.608-.608-.608zM8.507 35.243H1.215V10.937h7.292v24.306zm0-25.52H2.431V8.506h6.076v1.215zm9.115 25.52h-4.861v-3.646h4.861v3.646zm6.077 0h-4.861v-3.646h4.861v3.646zM26.737 7.9v27.344h-1.823V30.99c0-.336-.272-.608-.607-.608H12.153c-.335 0-.607.272-.607.608v4.253H9.723V1.215h17.014V7.9zm1.216.608h6.076v1.215h-6.076V8.507zm7.292 26.736h-7.292V10.937h7.292v24.306z" transform="translate(4.688 8.333)"/>
                <path d="M12.273 29.071h2.383c.329 0 .595-.266.595-.595v-2.383c0-.33-.266-.596-.595-.596h-2.383c-.33 0-.596.267-.596.596v2.383c0 .329.266.595.596.595zm.595-2.383h1.192v1.192h-1.192v-1.192zM19.422 25.497h-2.383c-.33 0-.596.267-.596.596v2.383c0 .329.267.595.596.595h2.383c.329 0 .595-.266.595-.595v-2.383c0-.33-.266-.596-.595-.596zm-.596 2.383h-1.192v-1.192h1.192v1.192zM24.188 25.497h-2.383c-.33 0-.596.267-.596.596v2.383c0 .329.267.595.596.595h2.383c.329 0 .595-.266.595-.595v-2.383c0-.33-.266-.596-.595-.596zm-.596 2.383H22.4v-1.192h1.192v1.192zM12.273 24.306h2.383c.329 0 .595-.267.595-.596v-2.383c0-.33-.266-.596-.595-.596h-2.383c-.33 0-.596.267-.596.596v2.383c0 .329.266.596.596.596zm.595-2.383h1.192v1.191h-1.192v-1.191zM19.422 20.731h-2.383c-.33 0-.596.267-.596.596v2.383c0 .329.267.596.596.596h2.383c.329 0 .595-.267.595-.596v-2.383c0-.33-.266-.596-.595-.596zm-.596 2.383h-1.192v-1.191h1.192v1.191zM24.188 20.731h-2.383c-.33 0-.596.267-.596.596v2.383c0 .329.267.596.596.596h2.383c.329 0 .595-.267.595-.596v-2.383c0-.33-.266-.596-.595-.596zm-.596 2.383H22.4v-1.191h1.192v1.191zM12.273 19.301h2.383c.329 0 .595-.266.595-.595v-2.383c0-.33-.266-.596-.595-.596h-2.383c-.33 0-.596.267-.596.596v2.383c0 .329.266.595.596.595zm.595-2.382h1.192v1.191h-1.192v-1.191zM12.273 14.297h2.383c.329 0 .595-.266.595-.595v-2.383c0-.33-.266-.596-.595-.596h-2.383c-.33 0-.596.267-.596.596v2.383c0 .329.266.595.596.595zm.595-2.383h1.192v1.192h-1.192v-1.192zM19.422 15.727h-2.383c-.33 0-.596.267-.596.596v2.383c0 .329.267.595.596.595h2.383c.329 0 .595-.266.595-.595v-2.383c0-.33-.266-.596-.595-.596zm-.596 2.383h-1.192v-1.191h1.192v1.191zM19.422 10.723h-2.383c-.33 0-.596.267-.596.596v2.383c0 .329.267.595.596.595h2.383c.329 0 .595-.266.595-.595v-2.383c0-.33-.266-.596-.595-.596zm-.596 2.383h-1.192v-1.192h1.192v1.192zM19.422 5.719h-2.383c-.33 0-.596.267-.596.596v2.383c0 .329.267.595.596.595h2.383c.329 0 .595-.266.595-.595V6.315c0-.33-.266-.596-.595-.596zm-.596 2.383h-1.192V6.91h1.192v1.192zM21.805 15.727c-.33 0-.596.267-.596.596v2.383c0 .329.267.595.596.595h2.383c.329 0 .595-.266.595-.595v-2.383c0-.33-.266-.596-.595-.596h-2.383zm1.787 2.383H22.4v-1.191h1.192v1.191zM21.805 10.723c-.33 0-.596.267-.596.596v2.383c0 .329.267.595.596.595h2.383c.329 0 .595-.266.595-.595v-2.383c0-.33-.266-.596-.595-.596h-2.383zm1.787 2.383H22.4v-1.192h1.192v1.192zM3.694 29.071h2.383c.329 0 .595-.266.595-.595v-2.383c0-.33-.266-.596-.595-.596H3.694c-.33 0-.596.267-.596.596v2.383c0 .329.267.595.596.595zm.595-2.383h1.192v1.192H4.289v-1.192zM3.694 24.306h2.383c.329 0 .595-.267.595-.596v-2.383c0-.33-.266-.596-.595-.596H3.694c-.33 0-.596.267-.596.596v2.383c0 .329.267.596.596.596zm.595-2.383h1.192v1.191H4.289v-1.191zM3.694 19.301h2.383c.329 0 .595-.266.595-.595v-2.383c0-.33-.266-.596-.595-.596H3.694c-.33 0-.596.267-.596.596v2.383c0 .329.267.595.596.595zm.595-2.382h1.192v1.191H4.289v-1.191zM32.766 25.497h-2.383c-.329 0-.595.267-.595.596v2.383c0 .329.266.595.595.595h2.383c.33 0 .596-.266.596-.595v-2.383c0-.33-.267-.596-.596-.596zm-.595 2.383h-1.192v-1.192h1.192v1.192zM32.766 20.731h-2.383c-.329 0-.595.267-.595.596v2.383c0 .329.266.596.595.596h2.383c.33 0 .596-.267.596-.596v-2.383c0-.33-.267-.596-.596-.596zm-.595 2.383h-1.192v-1.191h1.192v1.191zM32.766 15.727h-2.383c-.329 0-.595.267-.595.596v2.383c0 .329.266.595.595.595h2.383c.33 0 .596-.266.596-.595v-2.383c0-.33-.267-.596-.596-.596zm-.595 2.383h-1.192v-1.191h1.192v1.191z" transform="translate(4.688 8.333)"/>
            </g>
        </g>
    </g>
</svg>
