<svg xmlns="http://www.w3.org/2000/svg" xmlns:xlink="http://www.w3.org/1999/xlink" width="83" height="83" viewBox="0 0 83 83">
    <defs>
        <path id="prefix__a" d="M35.556 0c9.497 0 18.426 3.698 25.141 10.414 6.716 6.715 10.414 15.644 10.414 25.142 0 9.497-3.698 18.426-10.414 25.141-6.715 6.716-15.644 10.414-25.141 10.414-9.498 0-18.427-3.698-25.142-10.414C3.698 53.982 0 45.053 0 35.556c0-9.498 3.698-18.427 10.414-25.142C17.129 3.698 26.058 0 35.556 0zm0 4.233c-17.272 0-31.323 14.051-31.323 31.323 0 17.27 14.051 31.322 31.323 31.322 17.27 0 31.322-14.051 31.322-31.322 0-17.272-14.051-31.323-31.322-31.323zM54.758 37.1c1.177 0 2.13.943 2.13 2.106 0 11.454-9.43 20.774-21.023 20.774S14.84 50.66 14.84 39.207c0-1.163.954-2.106 2.13-2.106zm-2.265 4.211H19.237c1.05 8.143 8.106 14.458 16.628 14.458 8.521 0 15.578-6.315 16.628-14.458zM15.45 26.085c3.414-3.45 8.969-3.45 12.383 0 .814.823.814 2.156 0 2.979-.407.411-.94.617-1.474.617s-1.067-.206-1.474-.617c-1.788-1.807-4.698-1.807-6.486 0-.814.823-2.135.823-2.949 0-.814-.823-.814-2.157 0-2.98zm27.826 0c3.414-3.45 8.97-3.45 12.383 0 .814.823.814 2.156 0 2.979-.407.411-.94.617-1.474.617s-1.067-.206-1.474-.617c-1.788-1.807-4.698-1.807-6.486 0-.814.823-2.134.823-2.949 0-.814-.823-.814-2.157 0-2.98z"/>
    </defs>
    <g fill="none" fill-rule="evenodd" transform="translate(6.689 6.467)">
        <use fill="#0FD299" xlink:href="#prefix__a"/>
    </g>
</svg>
