<svg xmlns="http://www.w3.org/2000/svg" width="16" height="19" viewBox="0 0 16 19">
    <path fill="#00AACF" fill-rule="evenodd" d="M12.857 5.295C11.435 3.78 9.543 2.944 7.532 2.944H6.427L8.2 1.05 7.212 0 3.761 3.688 7.167 7.38l.995-1.042-1.76-1.908h1.13c3.384 0 6.137 2.935 6.137 6.542 0 3.607-2.753 6.541-6.137 6.541-3.384 0-6.137-2.934-6.137-6.541v-.744H0v.744c0 2.144.783 4.16 2.206 5.677C3.628 18.165 5.52 19 7.532 19c2.011 0 3.903-.835 5.325-2.351 1.423-1.517 2.206-3.533 2.206-5.677 0-2.144-.783-4.16-2.206-5.677z"/>
</svg>
