<svg xmlns="http://www.w3.org/2000/svg" xmlns:xlink="http://www.w3.org/1999/xlink" width="45" height="46" viewBox="0 0 45 46">
    <defs>
        <ellipse id="prefix__a" cx="22.459" cy="22.917" rx="22.459" ry="22.917"/>
    </defs>
    <g fill="none" fill-rule="evenodd" transform="translate(.042 .083)">
        <mask id="prefix__b" fill="#fff">
            <use xlink:href="#prefix__a"/>
        </mask>
        <use fill="#0FD299" xlink:href="#prefix__a"/>
        <g fill="#FFF" mask="url(#prefix__b)">
            <g transform="translate(3.573 4.167)">
                <path d="M36.75 40.844c-1.081-3.542-4.093-6.195-7.672-6.76l-4.002-.63v-.822c2.608-1.55 4.532-4.175 5.182-7.284 1.84-.262 3.267-1.841 3.33-3.784h.002c.031-.197.785-4.919.785-12.832V7.448l-1.843.944C30.554 2.437 24.748.884 24.489.818L23.527.57v1.313C21.748 1.13 17.833 0 10.353 0H9.36l.73 2.987-4.509-.77.75 6.157-2.177-.743v1.101c0 5.553 1.488 12.505 1.566 12.864.077 1.927 1.495 3.491 3.326 3.752.65 3.11 2.574 5.734 5.182 7.284v.822l-4.002.63c-3.58.565-6.592 3.218-7.671 6.76l-.62 2.031-.02-.002-.013.11L0 49.218h39.304l-2.555-8.375zM30.467 23.68c.013-.22.033-.436.033-.658v-3.824c.9.33 1.55 1.202 1.55 2.236 0 1.045-.666 1.927-1.583 2.246zM7.253 21.434c0-1.034.65-1.907 1.55-2.236v3.824c0 .222.02.439.033.658-.917-.32-1.583-1.2-1.583-2.246zm1.55-9.833v5.944c-.804.168-1.511.598-2.05 1.191-.402-2.283-.922-5.755-1.03-8.896l2.452.837-.799-6.544 4.791.817-.82-3.357c9.535.138 12.467 2.202 12.49 2.217l1.24.953V2.694c1.703.701 5.15 2.629 6.222 7.025l.234.96 1.286-.659c-.04 3.687-.246 6.597-.434 8.542-.516-.502-1.161-.866-1.884-1.017v-5.637h-2.325c-5.246 0-8.306-.762-8.336-.77l-1.369-.348.875 2.69c-5.449-.166-9.48-1.517-9.524-1.531l-1.019-.348zm1.55 11.42V13.76c1.722.473 5.46 1.323 10.074 1.323h1.076l-.696-2.137c1.42.238 3.932.55 7.37.55h.774v9.526c0 5.253-4.171 9.526-9.299 9.526-5.128 0-9.3-4.273-9.3-9.526zm13.174 10.37v.629c-.134.413-.948 2.497-3.875 2.497-2.926 0-3.739-2.074-3.875-2.497v-.63c1.205.475 2.509.746 3.875.746s2.67-.271 3.875-.746zm-9.032 1.628c.61 1.333 2.172 3.086 5.157 3.086s4.547-1.753 5.156-3.087l.92.146c-.47 1.287-2.139 5.08-6.076 7.563-3.92-2.474-5.6-6.273-6.075-7.563l.918-.145zM8.119 47.631H2.108l.925-3.033 5.382.613-.296 2.42zm8.433-1.588c0 .581.165 1.119.431 1.588H9.68l.666-5.458-1.537-.197-.203 1.658-5.103-.581.53-1.735c.906-2.967 3.43-5.19 6.43-5.664l1.551-.244c.345 1.052 1.884 5.079 5.879 8.024-.808.573-1.34 1.528-1.34 2.61zm3.1 1.588c-.855 0-1.55-.712-1.55-1.588 0-.875.695-1.587 1.55-1.587.855 0 1.55.712 1.55 1.587 0 .876-.695 1.588-1.55 1.588zm10.843-5.655l-1.537.197.665 5.458H22.32c.267-.47.432-1.007.432-1.588 0-1.08-.533-2.036-1.34-2.609 3.994-2.945 5.533-6.972 5.878-8.024l1.552.244c3 .473 5.523 2.697 6.429 5.664l.503 1.65-5.087.58-.192-1.572zm.384 3.147l5.366-.61.951 3.118h-6.01l-.307-2.508z"/>
                <circle cx="13.399" cy="19.141" r="1"/>
                <circle cx="25.905" cy="19.141" r="1"/>
                <path d="M25.012 21.875h-1.564c0 3.016-2.103 5.469-4.69 5.469-2.586 0-4.689-2.453-4.689-5.469h-1.563c0 4.02 2.805 7.292 6.253 7.292 3.447 0 6.253-3.272 6.253-7.292z"/>
            </g>
        </g>
    </g>
</svg>
