<svg xmlns="http://www.w3.org/2000/svg" viewBox="0 0 14.83 14.83"><defs><style>.cls-1{fill:#00aad0;opacity:0;}.cls-2{fill:#fff;fill-rule:evenodd;}</style></defs><g id="Capa_2" data-name="Capa 2"><g id="Capa_1-2" data-name="Capa 1"><rect class="cls-1" width="14.83" height="14.83"/><path class="cls-2" d="M11.71,3.3a.3.3,0,0,0-.47,0l-5,5.36a.31.31,0,0,1-.48,0L3.61,6.26a.3.3,0,0,0-.23-.11.35.35,0,0,0-.24.11l-1,.94a.39.39,0,0,0-.1.25.42.42,0,0,0,.1.26l2.2,2.5.47.52.59.65a.79.79,0,0,0,1.18,0l6-6.53a.4.4,0,0,0,0-.52Z"/></g></g></svg>