<svg xmlns="http://www.w3.org/2000/svg" width="101" height="117" viewBox="0 0 101 117">
    <path fill="#E1E1E1" fill-rule="evenodd" d="M55.048 116.116c19.885 2.037 31.057-4.525 38.542-40.167 3.686-16.973 6.59-36.434 7.15-42.657 1.786-8.373-9.161-11.542-11.284-4.187 0 0-5.865 32.021-6.2 33.266-.447 1.754-3.072 1.584-3.016-.905.055-2.094 3.044-45.882 3.044-45.882-.587-6.365-12.065-7.807-14.244-1.018-.419 7.043-1.843 40.393-1.843 40.393-.084 2.97-3.938 2.122-4.022.086-.083-2.037-.838-49.135-.838-49.135-1.508-8.826-14.41-6.874-14.327 0 .084 3.904 1.34 44.467 1.34 44.467.252 3.055-3.77 3.31-4.272.509-.503-2.8-3.268-36.32-3.268-36.32-.838-6.45-13.238-7.638-13.07.594l3.686 62.712s.097 4.13-3.688-.113c-8.628-7.694-13.823-17.453-23.04-14.907C-1.339 64.21.127 69.428.127 69.428c.418.764 1.717 2.292 3.728 3.819 8.923 7.892 18.35 21.71 22.37 26.915 6.033 7.92 12.82 14.483 28.823 15.954"/>
</svg>
