<svg xmlns="http://www.w3.org/2000/svg" width="101" height="117" viewBox="0 0 101 117">
    <g fill="none" fill-rule="evenodd">
        <path fill="#E1E1E1" d="M7.346 75.949C3.66 58.976.755 39.515.196 33.292c-1.787-8.373 9.16-11.542 11.284-4.187 0 0 5.864 32.021 6.2 33.266.446 1.754 3.072 1.584 3.016-.905-.056-2.094-3.044-45.882-3.044-45.882.586-6.365 12.065-7.807 14.243-1.018.42 7.043 1.844 40.393 1.844 40.393.083 2.97 3.938 2.122 4.021.086.084-2.037.838-49.135.838-49.135 1.508-8.826 14.411-6.874 14.327 0-.083 3.904-1.34 44.467-1.34 44.467-.251 3.055 3.77 3.31 4.273.509.503-2.8 3.268-36.32 3.268-36.32.837-6.45 13.238-7.638 13.07.594L68.51 77.872s-.097 4.13 3.688-.113c8.628-7.694 13.823-17.453 23.04-14.907 7.037 1.358 5.57 6.576 5.57 6.576-.418.764-1.717 2.292-3.728 3.819-8.923 7.892-18.349 21.71-22.37 26.915-6.033 7.92-12.82 14.483-28.823 15.954-19.885 2.037-31.056-4.525-38.541-40.167z" transform="matrix(-1 0 0 1 101 0)"/>
        <path fill="#00AACF" d="M20.286 55.783l-2.634-40.199c.586-6.365 12.065-7.807 14.243-1.018.222 3.723.782 16.269 1.682 37.637l-13.29 3.58z" transform="matrix(-1 0 0 1 101 0)"/>
    </g>
</svg>
