<svg xmlns="http://www.w3.org/2000/svg" width="100" height="98" viewBox="0 0 100 98">
    <g fill="none" fill-rule="evenodd" transform="translate(0 .4)">
        <g fill="#0FD299">
            <path d="M14.493 34.272l5.416-5.448-3.025-2.938-2.391 8.386zm9.902-27.079c0-1.677-1.373-3.042-3.06-3.042s-3.06 1.365-3.06 3.042c0 1.678 1.373 3.042 3.06 3.042s3.06-1.364 3.06-3.042zm-.348 12.415l-2.088-7.4h-1.176l-2.109 7.4h5.373zm1.112 3.935l-.554-1.962h-6.493l-.612 2.144 3.804 3.695 3.855-3.877zm2.962 10.499l-2.345-8.314-3.053 3.072 5.398 5.242zm1.182 4.146l-.06-.18c-.006-.015-.01-.032-.016-.046l-.033-.12-7.866-7.64-7.937 7.986h15.912zm4.188 4.276l-1.39-2.302H10.434l-1.247 2.302H33.49zm8.104 0c.548 0 .992.442.992.986 0 .545-.444.987-.992.987H7.525c-.043 0-.084-.003-.126-.008-.04.005-.08.008-.122.008H.992c-.547 0-.992-.442-.992-.987 0-.544.445-.986.992-.986h5.941l2.034-3.756c.172-.32.508-.52.874-.52h1.435l.261-.784 7.36-25.822c-1.553-.855-2.606-2.5-2.606-4.389 0-2.765 2.262-5.015 5.044-5.015 2.782 0 5.044 2.25 5.044 5.015 0 1.862-1.027 3.49-2.545 4.355l7.299 25.858.261.782h1.27c.35 0 .672.183.85.479l1.973 3.269.354.528h5.754zM34.485.48c4.463 7.21.16 13.623-.026 13.893-.197.284-.52.44-.849.44-.193 0-.39-.055-.564-.167-.468-.301-.594-.913-.283-1.368.158-.233 3.758-5.67-.026-11.781-.288-.468-.132-1.075.35-1.357.483-.28 1.11-.128 1.398.34" transform="translate(29.75 27.5)"/>
            <path d="M29.688 2.2c3.543 5.42.12 10.25-.027 10.451-.199.273-.512.419-.833.419-.201 0-.406-.058-.584-.18-.458-.313-.57-.925-.248-1.37.119-.166 2.773-3.984-.025-8.265-.302-.46-.16-1.07.315-1.36.475-.29 1.102-.154 1.402.306M14.617 11.558c.3.46.16 1.068-.315 1.359-.17.103-.357.153-.542.153-.337 0-.668-.163-.861-.458-3.542-5.42-.12-10.25.027-10.451.324-.445.958-.552 1.417-.24.46.314.57.926.249 1.371-.12.166-2.774 3.984.025 8.266M10.285 13.316c.288.468.132 1.075-.35 1.356-.165.094-.345.14-.523.14-.347 0-.684-.17-.876-.479C4.075 7.123 8.378.71 8.563.44c.31-.455.944-.576 1.413-.274.467.302.594.914.283 1.368-.16.234-3.758 5.671.026 11.782" transform="translate(29.75 27.5)"/>
        </g>
        <rect width="8" height="8" x="16" y="77" fill="#0FD299" opacity=".5" rx="1.498"/>
        <rect width="6" height="6" x="79" y="16" fill="#0FD299" opacity=".5" rx="1.498"/>
        <path stroke="#0FD299" stroke-linecap="round" stroke-width="2.247" d="M50.5 16C31.446 16 16 31.446 16 50.5M50 84.5c19.054 0 34.5-15.446 34.5-34.5" opacity=".25"/>
        <g transform="translate(76 72)">
            <g>
                <path d="M0 0H24V24H0z" transform="translate(0 4)"/>
                <g fill="#0FD299" opacity=".5">
                    <path d="M10.026 19.121H7.389c-.668 0-1.213-.545-1.213-1.213v-13.4c0-.67.544-1.213 1.213-1.213h2.637c.668 0 1.212.544 1.212 1.212v13.401c0 .668-.544 1.213-1.212 1.213zM7.94 17.356h1.532V5.06H7.94v12.296zM3.85 19.121H1.212C.545 19.121 0 18.576 0 17.908V9.801C0 9.133.544 8.59 1.213 8.59h2.636c.669 0 1.212.544 1.212 1.212v8.107c0 .668-.543 1.213-1.212 1.213zm-2.085-1.765h1.531v-7.002H1.765v7.002zM16.232 19.121h-2.636c-.668 0-1.211-.545-1.211-1.213V1.212c0-.668.543-1.212 1.211-1.212h2.636c.667 0 1.21.544 1.21 1.212v16.696c.002.668-.542 1.213-1.21 1.213zm-2.083-1.765h1.53V1.765h-1.53v15.591z" transform="translate(0 4) translate(3 2)"/>
                </g>
            </g>
            <rect width="4" height="4" x="20" fill="#0FD299" opacity=".5" rx="1.498"/>
        </g>
        <g transform="matrix(-1 0 0 1 24 0)">
            <g>
                <path d="M0 0H24V24H0z" transform="matrix(1 0 0 -1 0 28)"/>
                <g fill="#0FD299" opacity=".5">
                    <path d="M10.026 19.121H7.389c-.668 0-1.213-.545-1.213-1.213v-13.4c0-.67.544-1.213 1.213-1.213h2.637c.668 0 1.212.544 1.212 1.212v13.401c0 .668-.544 1.213-1.212 1.213zM7.94 17.356h1.532V5.06H7.94v12.296zM3.85 19.121H1.212C.545 19.121 0 18.576 0 17.908V9.801C0 9.133.544 8.59 1.213 8.59h2.636c.669 0 1.212.544 1.212 1.212v8.107c0 .668-.543 1.213-1.212 1.213zm-2.085-1.765h1.531v-7.002H1.765v7.002zM16.232 19.121h-2.636c-.668 0-1.211-.545-1.211-1.213V1.212c0-.668.543-1.212 1.211-1.212h2.636c.667 0 1.21.544 1.21 1.212v16.696c.002.668-.542 1.213-1.21 1.213zm-2.083-1.765h1.53V1.765h-1.53v15.591z" transform="matrix(1 0 0 -1 0 28) translate(3 2)"/>
                </g>
            </g>
            <rect width="4" height="4" x="20" fill="#0FD299" opacity=".5" rx="1.498"/>
        </g>
    </g>
</svg>
